<svg xmlns="http://www.w3.org/2000/svg" width="134" height="134" fill="none" viewBox="0 0 134 134">
    <circle cx="6.944" cy="6.944" r="6.944" fill="#C9F4CF"/>
    <circle cx="30.841" cy="6.944" r="6.944" fill="#C9F4CF"/>
    <circle cx="54.739" cy="6.944" r="6.944" fill="#C9F4CF"/>
    <circle cx="78.636" cy="6.944" r="6.944" fill="#C9F4CF"/>
    <circle cx="102.533" cy="6.944" r="6.944" fill="#C9F4CF"/>
    <circle cx="126.43" cy="6.944" r="6.944" fill="#C9F4CF"/>
    <circle cx="6.944" cy="30.966" r="6.944" fill="#C9F4CF"/>
    <circle cx="30.841" cy="30.966" r="6.944" fill="#C9F4CF"/>
    <circle cx="54.739" cy="30.966" r="6.944" fill="#C9F4CF"/>
    <circle cx="78.636" cy="30.966" r="6.944" fill="#C9F4CF"/>
    <circle cx="102.533" cy="30.966" r="6.944" fill="#C9F4CF"/>
    <circle cx="126.43" cy="30.966" r="6.944" fill="#C9F4CF"/>
    <circle cx="6.944" cy="54.989" r="6.944" fill="#C9F4CF"/>
    <circle cx="30.841" cy="54.989" r="6.944" fill="#C9F4CF"/>
    <circle cx="54.739" cy="54.989" r="6.944" fill="#C9F4CF"/>
    <circle cx="78.636" cy="54.989" r="6.944" fill="#C9F4CF"/>
    <circle cx="102.533" cy="54.989" r="6.944" fill="#C9F4CF"/>
    <circle cx="126.43" cy="54.989" r="6.944" fill="#C9F4CF"/>
    <circle cx="6.944" cy="79.011" r="6.944" fill="#C9F4CF"/>
    <circle cx="30.841" cy="79.011" r="6.944" fill="#C9F4CF"/>
    <circle cx="54.739" cy="79.011" r="6.944" fill="#C9F4CF"/>
    <circle cx="78.636" cy="79.011" r="6.944" fill="#C9F4CF"/>
    <circle cx="102.533" cy="79.011" r="6.944" fill="#C9F4CF"/>
    <circle cx="126.43" cy="79.011" r="6.944" fill="#C9F4CF"/>
    <circle cx="6.944" cy="103.034" r="6.944" fill="#C9F4CF"/>
    <circle cx="30.841" cy="103.034" r="6.944" fill="#C9F4CF"/>
    <circle cx="54.739" cy="103.034" r="6.944" fill="#C9F4CF"/>
    <circle cx="78.636" cy="103.034" r="6.944" fill="#C9F4CF"/>
    <circle cx="102.533" cy="103.034" r="6.944" fill="#C9F4CF"/>
    <circle cx="126.43" cy="103.034" r="6.944" fill="#C9F4CF"/>
    <circle cx="6.944" cy="127.056" r="6.944" fill="#C9F4CF"/>
    <circle cx="30.841" cy="127.056" r="6.944" fill="#C9F4CF"/>
    <circle cx="54.739" cy="127.056" r="6.944" fill="#C9F4CF"/>
    <circle cx="78.636" cy="127.056" r="6.944" fill="#C9F4CF"/>
    <circle cx="102.533" cy="127.056" r="6.944" fill="#C9F4CF"/>
    <circle cx="126.43" cy="127.056" r="6.944" fill="#C9F4CF"/>
</svg>
