<svg xmlns="http://www.w3.org/2000/svg" width="92" height="94" fill="none" viewBox="0 0 92 94">
    <circle cx="4.305" cy="4.305" r="4.305" fill="#FFD79B"/>
    <circle cx="20.953" cy="4.305" r="4.305" fill="#FFD79B"/>
    <circle cx="37.6" cy="4.305" r="4.305" fill="#FFD79B"/>
    <circle cx="54.248" cy="4.305" r="4.305" fill="#FFD79B"/>
    <circle cx="70.895" cy="4.305" r="4.305" fill="#FFD79B"/>
    <circle cx="87.543" cy="4.305" r="4.305" fill="#FFD79B"/>
    <circle cx="4.305" cy="21.383" r="4.305" fill="#FFD79B"/>
    <circle cx="20.953" cy="21.383" r="4.305" fill="#FFD79B"/>
    <circle cx="37.6" cy="21.383" r="4.305" fill="#FFD79B"/>
    <circle cx="54.248" cy="21.383" r="4.305" fill="#FFD79B"/>
    <circle cx="70.895" cy="21.383" r="4.305" fill="#FFD79B"/>
    <circle cx="87.543" cy="21.383" r="4.305" fill="#FFD79B"/>
    <circle cx="4.305" cy="38.461" r="4.305" fill="#FFD79B"/>
    <circle cx="20.953" cy="38.461" r="4.305" fill="#FFD79B"/>
    <circle cx="37.6" cy="38.461" r="4.305" fill="#FFD79B"/>
    <circle cx="54.248" cy="38.461" r="4.305" fill="#FFD79B"/>
    <circle cx="70.895" cy="38.461" r="4.305" fill="#FFD79B"/>
    <circle cx="87.543" cy="38.461" r="4.305" fill="#FFD79B"/>
    <circle cx="4.305" cy="55.539" r="4.305" fill="#FFD79B"/>
    <circle cx="20.953" cy="55.539" r="4.305" fill="#FFD79B"/>
    <circle cx="37.6" cy="55.539" r="4.305" fill="#FFD79B"/>
    <circle cx="54.248" cy="55.539" r="4.305" fill="#FFD79B"/>
    <circle cx="70.895" cy="55.539" r="4.305" fill="#FFD79B"/>
    <circle cx="87.543" cy="55.539" r="4.305" fill="#FFD79B"/>
    <circle cx="4.305" cy="72.617" r="4.305" fill="#FFD79B"/>
    <circle cx="20.953" cy="72.617" r="4.305" fill="#FFD79B"/>
    <circle cx="37.6" cy="72.617" r="4.305" fill="#FFD79B"/>
    <circle cx="54.248" cy="72.617" r="4.305" fill="#FFD79B"/>
    <circle cx="70.895" cy="72.617" r="4.305" fill="#FFD79B"/>
    <circle cx="87.543" cy="72.617" r="4.305" fill="#FFD79B"/>
    <circle cx="4.305" cy="89.695" r="4.305" fill="#FFD79B"/>
    <circle cx="20.953" cy="89.695" r="4.305" fill="#FFD79B"/>
    <circle cx="37.6" cy="89.695" r="4.305" fill="#FFD79B"/>
    <circle cx="54.248" cy="89.695" r="4.305" fill="#FFD79B"/>
    <circle cx="70.895" cy="89.695" r="4.305" fill="#FFD79B"/>
    <circle cx="87.543" cy="89.695" r="4.305" fill="#FFD79B"/>
</svg>
